<mxfile host="app.diagrams.net" modified="2023-04-22T12:52:40.868Z" agent="Mozilla/5.0 (Windows NT 10.0; Win64; x64) AppleWebKit/537.36 (KHTML, like Gecko) Chrome/112.0.0.0 Safari/537.36" etag="27U1sXZ4WvxPuqKb6SBB" version="21.2.1" type="github">
  <diagram name="Page-1" id="ff44883e-f642-bcb2-894b-16b3d25a3f0b">
    <mxGraphModel dx="3209.5" dy="1842" grid="1" gridSize="10" guides="1" tooltips="1" connect="1" arrows="1" fold="1" page="1" pageScale="1.5" pageWidth="1169" pageHeight="826" background="none" math="0" shadow="0">
      <root>
        <mxCell id="0" style=";html=1;" />
        <mxCell id="1" style=";html=1;" parent="0" />
        <mxCell id="1nZLgBnXPGTEjlmJPsbC-139" style="edgeStyle=orthogonalEdgeStyle;rounded=0;orthogonalLoop=1;jettySize=auto;html=1;entryX=-0.012;entryY=0.516;entryDx=0;entryDy=0;entryPerimeter=0;" parent="1" source="1nZLgBnXPGTEjlmJPsbC-140" target="1nZLgBnXPGTEjlmJPsbC-143" edge="1">
          <mxGeometry relative="1" as="geometry">
            <mxPoint x="-1365" y="-70" as="targetPoint" />
            <Array as="points">
              <mxPoint x="-1365" y="-89" />
            </Array>
          </mxGeometry>
        </mxCell>
        <mxCell id="1nZLgBnXPGTEjlmJPsbC-140" value="&lt;span style=&quot;font-size: 14px;&quot;&gt;User&lt;/span&gt;" style="shape=umlActor;verticalLabelPosition=bottom;verticalAlign=top;html=1;" parent="1" vertex="1">
          <mxGeometry x="-1380" y="160" width="30" height="60" as="geometry" />
        </mxCell>
        <mxCell id="1nZLgBnXPGTEjlmJPsbC-141" value="&lt;p style=&quot;line-height: 160%;&quot;&gt;&lt;br&gt;&lt;/p&gt;" style="shape=umlBoundary;whiteSpace=wrap;html=1;" parent="1" vertex="1">
          <mxGeometry x="-1090" y="430" width="100" height="80" as="geometry" />
        </mxCell>
        <mxCell id="1nZLgBnXPGTEjlmJPsbC-142" value="&lt;p style=&quot;line-height: 120%;&quot;&gt;&lt;font style=&quot;font-size: 14px;&quot;&gt;Επιλογή σύνδεσης ως μαθητής&lt;/font&gt;&lt;/p&gt;" style="text;html=1;align=center;verticalAlign=middle;resizable=0;points=[];autosize=1;strokeColor=none;fillColor=none;" parent="1" vertex="1">
          <mxGeometry x="-1330" y="428" width="220" height="50" as="geometry" />
        </mxCell>
        <mxCell id="1nZLgBnXPGTEjlmJPsbC-143" value="&lt;p style=&quot;line-height: 160%;&quot;&gt;&lt;br&gt;&lt;/p&gt;" style="shape=umlBoundary;whiteSpace=wrap;html=1;" parent="1" vertex="1">
          <mxGeometry x="-1090" y="-130" width="100" height="80" as="geometry" />
        </mxCell>
        <mxCell id="1nZLgBnXPGTEjlmJPsbC-144" value="&lt;p style=&quot;line-height: 120%;&quot;&gt;&lt;font style=&quot;font-size: 14px;&quot;&gt;Επιλογή σύνδεσης ως καθηγητής&lt;/font&gt;&lt;/p&gt;" style="text;html=1;align=center;verticalAlign=middle;resizable=0;points=[];autosize=1;strokeColor=none;fillColor=none;" parent="1" vertex="1">
          <mxGeometry x="-1335" y="-130" width="230" height="50" as="geometry" />
        </mxCell>
        <mxCell id="1nZLgBnXPGTEjlmJPsbC-145" value="&lt;p style=&quot;line-height: 120%;&quot;&gt;&lt;font style=&quot;font-size: 14px;&quot;&gt;Αρχική Σελίδα&lt;/font&gt;&lt;/p&gt;" style="text;html=1;align=center;verticalAlign=middle;resizable=0;points=[];autosize=1;strokeColor=none;fillColor=none;" parent="1" vertex="1">
          <mxGeometry x="-1090" y="-60" width="110" height="50" as="geometry" />
        </mxCell>
        <mxCell id="1nZLgBnXPGTEjlmJPsbC-146" style="edgeStyle=orthogonalEdgeStyle;rounded=0;orthogonalLoop=1;jettySize=auto;html=1;" parent="1" edge="1">
          <mxGeometry relative="1" as="geometry">
            <mxPoint x="-1090" y="470" as="targetPoint" />
            <mxPoint x="-1363" y="243" as="sourcePoint" />
            <Array as="points">
              <mxPoint x="-1364" y="471" />
            </Array>
          </mxGeometry>
        </mxCell>
        <mxCell id="1nZLgBnXPGTEjlmJPsbC-148" value="&lt;p style=&quot;line-height: 120%;&quot;&gt;&lt;font style=&quot;font-size: 14px;&quot;&gt;Αρχική Σελίδα&lt;/font&gt;&lt;/p&gt;" style="text;html=1;align=center;verticalAlign=middle;resizable=0;points=[];autosize=1;strokeColor=none;fillColor=none;" parent="1" vertex="1">
          <mxGeometry x="-1090" y="498" width="110" height="50" as="geometry" />
        </mxCell>
        <mxCell id="1nZLgBnXPGTEjlmJPsbC-149" style="edgeStyle=orthogonalEdgeStyle;rounded=0;orthogonalLoop=1;jettySize=auto;html=1;" parent="1" source="1nZLgBnXPGTEjlmJPsbC-140" edge="1">
          <mxGeometry relative="1" as="geometry">
            <mxPoint x="-1091" y="190" as="targetPoint" />
            <mxPoint x="-900" y="130" as="sourcePoint" />
            <Array as="points">
              <mxPoint x="-1210" y="190" />
              <mxPoint x="-1210" y="190" />
            </Array>
          </mxGeometry>
        </mxCell>
        <mxCell id="1nZLgBnXPGTEjlmJPsbC-161" style="edgeStyle=orthogonalEdgeStyle;rounded=0;orthogonalLoop=1;jettySize=auto;html=1;" parent="1" edge="1">
          <mxGeometry relative="1" as="geometry">
            <mxPoint x="-801" y="450" as="targetPoint" />
            <mxPoint x="-1040" y="260" as="sourcePoint" />
            <Array as="points">
              <mxPoint x="-1040" y="300" />
              <mxPoint x="-900" y="300" />
              <mxPoint x="-900" y="450" />
            </Array>
          </mxGeometry>
        </mxCell>
        <mxCell id="1nZLgBnXPGTEjlmJPsbC-162" style="edgeStyle=orthogonalEdgeStyle;rounded=0;orthogonalLoop=1;jettySize=auto;html=1;" parent="1" source="1nZLgBnXPGTEjlmJPsbC-151" edge="1">
          <mxGeometry relative="1" as="geometry">
            <mxPoint x="-806" y="-70" as="targetPoint" />
            <Array as="points">
              <mxPoint x="-1040" y="110" />
              <mxPoint x="-900" y="110" />
              <mxPoint x="-900" y="-70" />
            </Array>
          </mxGeometry>
        </mxCell>
        <mxCell id="1nZLgBnXPGTEjlmJPsbC-151" value="&lt;p style=&quot;line-height: 160%;&quot;&gt;&lt;br&gt;&lt;/p&gt;" style="shape=umlBoundary;whiteSpace=wrap;html=1;" parent="1" vertex="1">
          <mxGeometry x="-1090" y="150" width="100" height="80" as="geometry" />
        </mxCell>
        <mxCell id="1nZLgBnXPGTEjlmJPsbC-152" value="&lt;p style=&quot;line-height: 120%;&quot;&gt;&lt;font style=&quot;font-size: 14px;&quot;&gt;Μήνυμα Λάθους&lt;/font&gt;&lt;/p&gt;" style="text;html=1;align=center;verticalAlign=middle;resizable=0;points=[];autosize=1;strokeColor=none;fillColor=none;" parent="1" vertex="1">
          <mxGeometry x="-1095" y="220" width="120" height="50" as="geometry" />
        </mxCell>
        <mxCell id="1nZLgBnXPGTEjlmJPsbC-153" value="&lt;p style=&quot;line-height: 120%;&quot;&gt;&lt;font style=&quot;font-size: 14px;&quot;&gt;Επιλογή &quot;Προσπαθήστε Ξανά&quot;&lt;/font&gt;&lt;/p&gt;" style="text;html=1;align=center;verticalAlign=middle;resizable=0;points=[];autosize=1;strokeColor=none;fillColor=none;" parent="1" vertex="1">
          <mxGeometry x="-1325" y="150" width="210" height="50" as="geometry" />
        </mxCell>
        <mxCell id="1nZLgBnXPGTEjlmJPsbC-155" value="" style="edgeStyle=orthogonalEdgeStyle;rounded=0;orthogonalLoop=1;jettySize=auto;html=1;" parent="1" target="1nZLgBnXPGTEjlmJPsbC-156" edge="1">
          <mxGeometry relative="1" as="geometry">
            <mxPoint x="-990" y="-90" as="sourcePoint" />
          </mxGeometry>
        </mxCell>
        <mxCell id="1nZLgBnXPGTEjlmJPsbC-167" style="edgeStyle=orthogonalEdgeStyle;rounded=0;orthogonalLoop=1;jettySize=auto;html=1;" parent="1" source="1nZLgBnXPGTEjlmJPsbC-156" edge="1">
          <mxGeometry relative="1" as="geometry">
            <mxPoint x="-582" y="170" as="targetPoint" />
            <Array as="points">
              <mxPoint x="-620" y="-90" />
              <mxPoint x="-620" y="170" />
            </Array>
          </mxGeometry>
        </mxCell>
        <mxCell id="1nZLgBnXPGTEjlmJPsbC-156" value="" style="ellipse;shape=umlControl;whiteSpace=wrap;html=1;" parent="1" vertex="1">
          <mxGeometry x="-810" y="-130" width="70" height="80" as="geometry" />
        </mxCell>
        <mxCell id="1nZLgBnXPGTEjlmJPsbC-157" value="&lt;p style=&quot;line-height: 120%;&quot;&gt;&lt;span style=&quot;font-size: 14px;&quot;&gt;Εμφάνισε&lt;/span&gt;&lt;/p&gt;" style="text;html=1;align=center;verticalAlign=middle;resizable=0;points=[];autosize=1;strokeColor=none;fillColor=none;" parent="1" vertex="1">
          <mxGeometry x="-815" y="-60" width="80" height="50" as="geometry" />
        </mxCell>
        <mxCell id="1nZLgBnXPGTEjlmJPsbC-158" value="" style="edgeStyle=orthogonalEdgeStyle;rounded=0;orthogonalLoop=1;jettySize=auto;html=1;" parent="1" target="1nZLgBnXPGTEjlmJPsbC-159" edge="1">
          <mxGeometry relative="1" as="geometry">
            <mxPoint x="-990" y="470" as="sourcePoint" />
          </mxGeometry>
        </mxCell>
        <mxCell id="1nZLgBnXPGTEjlmJPsbC-168" style="edgeStyle=orthogonalEdgeStyle;rounded=0;orthogonalLoop=1;jettySize=auto;html=1;" parent="1" source="1nZLgBnXPGTEjlmJPsbC-159" edge="1">
          <mxGeometry relative="1" as="geometry">
            <mxPoint x="-582" y="210" as="targetPoint" />
            <Array as="points">
              <mxPoint x="-620" y="470" />
              <mxPoint x="-620" y="210" />
            </Array>
          </mxGeometry>
        </mxCell>
        <mxCell id="1nZLgBnXPGTEjlmJPsbC-159" value="" style="ellipse;shape=umlControl;whiteSpace=wrap;html=1;" parent="1" vertex="1">
          <mxGeometry x="-810" y="430" width="70" height="80" as="geometry" />
        </mxCell>
        <mxCell id="1nZLgBnXPGTEjlmJPsbC-160" value="&lt;p style=&quot;line-height: 120%;&quot;&gt;&lt;span style=&quot;font-size: 14px;&quot;&gt;Εμφάνισε&lt;/span&gt;&lt;/p&gt;" style="text;html=1;align=center;verticalAlign=middle;resizable=0;points=[];autosize=1;strokeColor=none;fillColor=none;" parent="1" vertex="1">
          <mxGeometry x="-815" y="500" width="80" height="50" as="geometry" />
        </mxCell>
        <mxCell id="1nZLgBnXPGTEjlmJPsbC-185" style="edgeStyle=orthogonalEdgeStyle;rounded=0;orthogonalLoop=1;jettySize=auto;html=1;" parent="1" source="1nZLgBnXPGTEjlmJPsbC-164" edge="1">
          <mxGeometry relative="1" as="geometry">
            <mxPoint x="-340" y="190" as="targetPoint" />
          </mxGeometry>
        </mxCell>
        <mxCell id="1nZLgBnXPGTEjlmJPsbC-164" value="&lt;p style=&quot;line-height: 160%;&quot;&gt;&lt;br&gt;&lt;/p&gt;" style="shape=umlBoundary;whiteSpace=wrap;html=1;" parent="1" vertex="1">
          <mxGeometry x="-580" y="150" width="100" height="80" as="geometry" />
        </mxCell>
        <mxCell id="1nZLgBnXPGTEjlmJPsbC-165" value="&lt;p style=&quot;line-height: 120%;&quot;&gt;&lt;span style=&quot;font-size: 14px;&quot;&gt;Πλαίσιο Συμπλήρωσης&amp;nbsp;&lt;br&gt;Username και Κωδικού &lt;br&gt;ή&lt;br&gt;&quot;Ξέχασα τον κωδικό μου&quot;&lt;/span&gt;&lt;/p&gt;" style="text;html=1;align=center;verticalAlign=middle;resizable=0;points=[];autosize=1;strokeColor=none;fillColor=none;spacingBottom=0;strokeWidth=0;" parent="1" vertex="1">
          <mxGeometry x="-615" y="218" width="180" height="100" as="geometry" />
        </mxCell>
        <mxCell id="1nZLgBnXPGTEjlmJPsbC-169" style="edgeStyle=orthogonalEdgeStyle;rounded=0;orthogonalLoop=1;jettySize=auto;html=1;spacingTop=-5;" parent="1" edge="1">
          <mxGeometry relative="1" as="geometry">
            <mxPoint x="-550" y="160" as="targetPoint" />
            <mxPoint x="-1379.92" y="190" as="sourcePoint" />
            <Array as="points">
              <mxPoint x="-1420" y="190" />
              <mxPoint x="-1420" y="-180" />
              <mxPoint x="-550" y="-180" />
              <mxPoint x="-550" y="154" />
            </Array>
          </mxGeometry>
        </mxCell>
        <mxCell id="1nZLgBnXPGTEjlmJPsbC-170" style="edgeStyle=orthogonalEdgeStyle;rounded=0;orthogonalLoop=1;jettySize=auto;html=1;spacingTop=-5;" parent="1" edge="1">
          <mxGeometry relative="1" as="geometry">
            <mxPoint x="-497" y="157" as="targetPoint" />
            <mxPoint x="-1379.96" y="190" as="sourcePoint" />
            <Array as="points">
              <mxPoint x="-1460" y="190" />
              <mxPoint x="-1460" y="-260" />
              <mxPoint x="-497" y="-260" />
            </Array>
          </mxGeometry>
        </mxCell>
        <mxCell id="1nZLgBnXPGTEjlmJPsbC-171" value="&lt;p style=&quot;line-height: 120%;&quot;&gt;&lt;font style=&quot;font-size: 14px;&quot;&gt;Συμπλήρωση Username, Κωδικού&lt;/font&gt;&lt;/p&gt;" style="text;html=1;align=center;verticalAlign=middle;resizable=0;points=[];autosize=1;strokeColor=none;fillColor=none;" parent="1" vertex="1">
          <mxGeometry x="-1116.5" y="-220" width="240" height="50" as="geometry" />
        </mxCell>
        <mxCell id="1nZLgBnXPGTEjlmJPsbC-172" value="&lt;p style=&quot;line-height: 120%;&quot;&gt;&lt;span style=&quot;font-size: 14px;&quot;&gt;Επιλογή &quot;Ξέχασα τον κωδικό μου&quot;&lt;/span&gt;&lt;/p&gt;" style="text;html=1;align=center;verticalAlign=middle;resizable=0;points=[];autosize=1;strokeColor=none;fillColor=none;" parent="1" vertex="1">
          <mxGeometry x="-1116.5" y="-300" width="230" height="50" as="geometry" />
        </mxCell>
        <mxCell id="1nZLgBnXPGTEjlmJPsbC-179" value="" style="ellipse;shape=umlEntity;whiteSpace=wrap;html=1;" parent="1" vertex="1">
          <mxGeometry x="-345" y="-90" width="80" height="80" as="geometry" />
        </mxCell>
        <mxCell id="1nZLgBnXPGTEjlmJPsbC-197" style="edgeStyle=orthogonalEdgeStyle;rounded=0;orthogonalLoop=1;jettySize=auto;html=1;" parent="1" source="1nZLgBnXPGTEjlmJPsbC-180" edge="1">
          <mxGeometry relative="1" as="geometry">
            <mxPoint x="-270" y="621" as="targetPoint" />
            <Array as="points">
              <mxPoint x="-180" y="190" />
              <mxPoint x="-180" y="621" />
            </Array>
          </mxGeometry>
        </mxCell>
        <mxCell id="1nZLgBnXPGTEjlmJPsbC-180" value="" style="ellipse;shape=umlControl;whiteSpace=wrap;html=1;" parent="1" vertex="1">
          <mxGeometry x="-340" y="150" width="75" height="80" as="geometry" />
        </mxCell>
        <mxCell id="1nZLgBnXPGTEjlmJPsbC-181" value="&lt;p style=&quot;line-height: 120%;&quot;&gt;&lt;span style=&quot;font-size: 14px;&quot;&gt;Έλεγχος Στοιχείων&lt;br&gt;&amp;nbsp;Χρήστη&lt;/span&gt;&lt;/p&gt;" style="text;html=1;align=center;verticalAlign=middle;resizable=0;points=[];autosize=1;strokeColor=none;fillColor=none;" parent="1" vertex="1">
          <mxGeometry x="-370" y="218" width="140" height="70" as="geometry" />
        </mxCell>
        <mxCell id="1nZLgBnXPGTEjlmJPsbC-182" value="&lt;p style=&quot;line-height: 120%;&quot;&gt;&lt;span style=&quot;font-size: 14px;&quot;&gt;Επιτυχής Σύνδεση&amp;nbsp;&lt;br&gt;Χρήστη&lt;/span&gt;&lt;/p&gt;" style="text;html=1;align=center;verticalAlign=middle;resizable=0;points=[];autosize=1;strokeColor=none;fillColor=none;" parent="1" vertex="1">
          <mxGeometry x="-372.5" y="-20" width="140" height="70" as="geometry" />
        </mxCell>
        <mxCell id="1nZLgBnXPGTEjlmJPsbC-183" value="" style="edgeStyle=orthogonalEdgeStyle;rounded=0;orthogonalLoop=1;jettySize=auto;html=1;" parent="1" edge="1">
          <mxGeometry relative="1" as="geometry">
            <mxPoint x="-305.71" y="154" as="sourcePoint" />
            <mxPoint x="-305" y="34" as="targetPoint" />
            <Array as="points">
              <mxPoint x="-305.2999999999999" y="150" />
              <mxPoint x="-305.2999999999999" y="150" />
            </Array>
          </mxGeometry>
        </mxCell>
        <mxCell id="1nZLgBnXPGTEjlmJPsbC-187" value="" style="endArrow=classic;html=1;rounded=0;" parent="1" edge="1">
          <mxGeometry width="50" height="50" relative="1" as="geometry">
            <mxPoint x="-303" y="270" as="sourcePoint" />
            <mxPoint x="-303" y="400" as="targetPoint" />
          </mxGeometry>
        </mxCell>
        <mxCell id="1nZLgBnXPGTEjlmJPsbC-190" style="edgeStyle=orthogonalEdgeStyle;rounded=0;orthogonalLoop=1;jettySize=auto;html=1;entryX=1;entryY=0.5;entryDx=0;entryDy=0;entryPerimeter=0;exitX=0;exitY=0.549;exitDx=0;exitDy=0;exitPerimeter=0;" parent="1" source="1nZLgBnXPGTEjlmJPsbC-188" target="1nZLgBnXPGTEjlmJPsbC-151" edge="1">
          <mxGeometry relative="1" as="geometry">
            <mxPoint x="-810" y="330" as="targetPoint" />
            <mxPoint x="-340" y="440" as="sourcePoint" />
            <Array as="points">
              <mxPoint x="-335" y="440" />
              <mxPoint x="-570" y="440" />
              <mxPoint x="-570" y="360" />
              <mxPoint x="-810" y="360" />
              <mxPoint x="-810" y="190" />
            </Array>
          </mxGeometry>
        </mxCell>
        <mxCell id="1nZLgBnXPGTEjlmJPsbC-188" value="" style="ellipse;shape=umlControl;whiteSpace=wrap;html=1;" parent="1" vertex="1">
          <mxGeometry x="-335" y="398" width="70" height="80" as="geometry" />
        </mxCell>
        <mxCell id="1nZLgBnXPGTEjlmJPsbC-189" value="&lt;p style=&quot;line-height: 120%;&quot;&gt;&lt;span style=&quot;font-size: 14px;&quot;&gt;Εμφάνισε&lt;/span&gt;&lt;/p&gt;" style="text;html=1;align=center;verticalAlign=middle;resizable=0;points=[];autosize=1;strokeColor=none;fillColor=none;" parent="1" vertex="1">
          <mxGeometry x="-340" y="470" width="80" height="50" as="geometry" />
        </mxCell>
        <mxCell id="1nZLgBnXPGTEjlmJPsbC-191" value="" style="ellipse;shape=umlControl;whiteSpace=wrap;html=1;" parent="1" vertex="1">
          <mxGeometry x="-340" y="580" width="70" height="80" as="geometry" />
        </mxCell>
        <mxCell id="1nZLgBnXPGTEjlmJPsbC-192" value="&lt;p style=&quot;line-height: 120%;&quot;&gt;&lt;span style=&quot;font-size: 14px;&quot;&gt;Ανάκτηση Ερώτησης &lt;br&gt;Ασφαλείας&lt;/span&gt;&lt;/p&gt;" style="text;html=1;align=center;verticalAlign=middle;resizable=0;points=[];autosize=1;strokeColor=none;fillColor=none;" parent="1" vertex="1">
          <mxGeometry x="-380" y="650" width="150" height="70" as="geometry" />
        </mxCell>
        <mxCell id="1nZLgBnXPGTEjlmJPsbC-194" value="" style="ellipse;shape=umlEntity;whiteSpace=wrap;html=1;" parent="1" vertex="1">
          <mxGeometry x="-545" y="580" width="80" height="80" as="geometry" />
        </mxCell>
        <mxCell id="1nZLgBnXPGTEjlmJPsbC-195" value="&lt;p style=&quot;line-height: 120%;&quot;&gt;&lt;span style=&quot;font-size: 14px;&quot;&gt;Βάση Δεδομένων&lt;/span&gt;&lt;/p&gt;" style="text;html=1;align=center;verticalAlign=middle;resizable=0;points=[];autosize=1;strokeColor=none;fillColor=none;" parent="1" vertex="1">
          <mxGeometry x="-570" y="650" width="130" height="50" as="geometry" />
        </mxCell>
        <mxCell id="1nZLgBnXPGTEjlmJPsbC-196" style="edgeStyle=orthogonalEdgeStyle;rounded=0;orthogonalLoop=1;jettySize=auto;html=1;" parent="1" edge="1">
          <mxGeometry relative="1" as="geometry">
            <mxPoint x="-342" y="620" as="sourcePoint" />
            <mxPoint x="-464" y="620" as="targetPoint" />
          </mxGeometry>
        </mxCell>
        <mxCell id="1nZLgBnXPGTEjlmJPsbC-198" value="" style="edgeStyle=orthogonalEdgeStyle;rounded=0;orthogonalLoop=1;jettySize=auto;html=1;" parent="1" edge="1">
          <mxGeometry relative="1" as="geometry">
            <mxPoint x="-305.77" y="700" as="sourcePoint" />
            <mxPoint x="-306" y="820" as="targetPoint" />
            <Array as="points">
              <mxPoint x="-306" y="740" />
              <mxPoint x="-306" y="740" />
            </Array>
          </mxGeometry>
        </mxCell>
        <mxCell id="1nZLgBnXPGTEjlmJPsbC-199" value="&lt;p style=&quot;line-height: 160%;&quot;&gt;&lt;br&gt;&lt;/p&gt;" style="shape=umlBoundary;whiteSpace=wrap;html=1;" parent="1" vertex="1">
          <mxGeometry x="-360" y="820" width="100" height="80" as="geometry" />
        </mxCell>
        <mxCell id="1nZLgBnXPGTEjlmJPsbC-200" value="&lt;p style=&quot;line-height: 120%;&quot;&gt;&lt;span style=&quot;font-size: 14px;&quot;&gt;Πλαίσιο Απάντησης&lt;br&gt;&lt;/span&gt;&lt;/p&gt;" style="text;html=1;align=center;verticalAlign=middle;resizable=0;points=[];autosize=1;strokeColor=none;fillColor=none;spacingBottom=0;strokeWidth=0;" parent="1" vertex="1">
          <mxGeometry x="-375" y="890" width="140" height="50" as="geometry" />
        </mxCell>
        <mxCell id="1nZLgBnXPGTEjlmJPsbC-202" value="" style="ellipse;shape=umlControl;whiteSpace=wrap;html=1;" parent="1" vertex="1">
          <mxGeometry x="-550" y="816" width="70" height="80" as="geometry" />
        </mxCell>
        <mxCell id="1nZLgBnXPGTEjlmJPsbC-204" value="&lt;p style=&quot;line-height: 120%;&quot;&gt;&lt;span style=&quot;font-size: 14px;&quot;&gt;Έλεγχος Απάντησης&lt;/span&gt;&lt;/p&gt;" style="text;html=1;align=center;verticalAlign=middle;resizable=0;points=[];autosize=1;strokeColor=none;fillColor=none;" parent="1" vertex="1">
          <mxGeometry x="-600" y="890" width="150" height="50" as="geometry" />
        </mxCell>
        <mxCell id="1nZLgBnXPGTEjlmJPsbC-205" value="&lt;p style=&quot;line-height: 160%;&quot;&gt;&lt;br&gt;&lt;/p&gt;" style="shape=umlBoundary;whiteSpace=wrap;html=1;" parent="1" vertex="1">
          <mxGeometry x="-790" y="820" width="100" height="80" as="geometry" />
        </mxCell>
        <mxCell id="1nZLgBnXPGTEjlmJPsbC-207" value="&lt;p style=&quot;line-height: 120%;&quot;&gt;&lt;span style=&quot;font-size: 14px;&quot;&gt;Πλαίσιο Συμπλήρωσης&lt;br&gt;Νέου Κωδικού Πρόσβασης&lt;/span&gt;&lt;/p&gt;" style="text;html=1;align=center;verticalAlign=middle;resizable=0;points=[];autosize=1;strokeColor=none;fillColor=none;spacingBottom=0;strokeWidth=0;" parent="1" vertex="1">
          <mxGeometry x="-835" y="890" width="190" height="70" as="geometry" />
        </mxCell>
        <mxCell id="1nZLgBnXPGTEjlmJPsbC-218" style="edgeStyle=orthogonalEdgeStyle;rounded=0;orthogonalLoop=1;jettySize=auto;html=1;" parent="1" edge="1">
          <mxGeometry relative="1" as="geometry">
            <mxPoint x="-360" y="859.23" as="sourcePoint" />
            <mxPoint x="-482" y="859.23" as="targetPoint" />
          </mxGeometry>
        </mxCell>
        <mxCell id="1nZLgBnXPGTEjlmJPsbC-219" style="edgeStyle=orthogonalEdgeStyle;rounded=0;orthogonalLoop=1;jettySize=auto;html=1;" parent="1" edge="1">
          <mxGeometry relative="1" as="geometry">
            <mxPoint x="-550" y="859.23" as="sourcePoint" />
            <mxPoint x="-690" y="859.23" as="targetPoint" />
          </mxGeometry>
        </mxCell>
        <mxCell id="1nZLgBnXPGTEjlmJPsbC-225" style="edgeStyle=orthogonalEdgeStyle;rounded=0;orthogonalLoop=1;jettySize=auto;html=1;" parent="1" source="1nZLgBnXPGTEjlmJPsbC-220" edge="1">
          <mxGeometry relative="1" as="geometry">
            <mxPoint x="-520" y="300" as="targetPoint" />
            <Array as="points">
              <mxPoint x="-610" y="640" />
              <mxPoint x="-610" y="510" />
              <mxPoint x="-520" y="510" />
            </Array>
          </mxGeometry>
        </mxCell>
        <mxCell id="1nZLgBnXPGTEjlmJPsbC-220" value="" style="ellipse;shape=umlControl;whiteSpace=wrap;html=1;" parent="1" vertex="1">
          <mxGeometry x="-760" y="600" width="70" height="80" as="geometry" />
        </mxCell>
        <mxCell id="1nZLgBnXPGTEjlmJPsbC-222" style="edgeStyle=orthogonalEdgeStyle;rounded=0;orthogonalLoop=1;jettySize=auto;html=1;" parent="1" edge="1">
          <mxGeometry relative="1" as="geometry">
            <mxPoint x="-725.43" y="820" as="sourcePoint" />
            <mxPoint x="-725.43" y="710" as="targetPoint" />
            <Array as="points">
              <mxPoint x="-725.43" y="790" />
              <mxPoint x="-725.43" y="790" />
            </Array>
          </mxGeometry>
        </mxCell>
        <mxCell id="1nZLgBnXPGTEjlmJPsbC-223" value="&lt;p style=&quot;line-height: 120%;&quot;&gt;&lt;span style=&quot;font-size: 14px;&quot;&gt;Εμφάνισε&lt;/span&gt;&lt;/p&gt;" style="text;html=1;align=center;verticalAlign=middle;resizable=0;points=[];autosize=1;strokeColor=none;fillColor=none;" parent="1" vertex="1">
          <mxGeometry x="-765" y="670" width="80" height="50" as="geometry" />
        </mxCell>
      </root>
    </mxGraphModel>
  </diagram>
</mxfile>
